/* XPM */
static char *bitcoin64_xpm[] = {
/* width height num_colors chars_per_pixel */
"    48    48      256            2",
/* colors */
"`` c #042244",
"`. c #4c96dc",
"`# c #045aae",
"`a c #acb8c4",
"`b c #4c6680",
"`c c #043e79",
"`d c #7c96ac",
"`e c #1477dc",
"`f c #c4def4",
"`g c #043e91",
"`h c #245b94",
"`i c #4481bc",
"`j c #7cb6ec",
"`k c #044e97",
"`l c #043264",
"`m c #6492bf",
"`n c #0c6acc",
"`o c #accae4",
"`p c #6484a4",
"`q c #e4e6ec",
"`r c #246ab0",
"`s c #145eac",
"`t c #1c426c",
"`u c #7ca3cc",
"`v c #1c518c",
"`w c #64a6ec",
"`x c #94b2d4",
"`y c #4482c4",
"`z c #c4d2e2",
"`A c #9cc6f0",
"`B c #044ea6",
"`C c #043277",
"`D c #04265c",
"`E c #045abc",
"`F c #2c76c4",
"`G c #5c728c",
"`H c #649acf",
"`I c #ecf6fc",
"`J c #044ab0",
"`K c #345a84",
"`L c #d4dee8",
"`M c #9cbada",
"`N c #acc2e0",
"`O c #044684",
"`P c #04468e",
"`Q c #94aece",
"`R c #549eec",
"`S c #4c75a4",
"`T c #547ea4",
"`U c #bcd2e9",
"`V c #748294",
"`W c #346aa0",
"`X c #0462bc",
"`Y c #3482cc",
"`Z c #042a53",
"`0 c #2c6294",
"`1 c #e4eef6",
"`2 c #84aad2",
"`3 c #0456a6",
"`4 c #d4e6f4",
"`5 c #8c9aac",
"`6 c #143654",
"`7 c #146abc",
"`8 c #bccadc",
".` c #648ab4",
".. c #1c4e80",
".# c #043a76",
".a c #144a8c",
".b c #144e8f",
".c c #7496bc",
".d c #749ac0",
".e c #0c4a8f",
".f c #5487bc",
".g c #44729c",
".h c #14426c",
".i c #7c9aba",
".j c #6496d4",
".k c #a4b6c8",
".l c #4c8ac4",
".m c #d4dae4",
".n c #042e5c",
".o c #a4bad4",
".p c #bcc6d0",
".q c #0c62bc",
".r c #f4f2f4",
".s c #5c92cc",
".t c #0c5aab",
".u c #acbed4",
".v c #0c3e74",
".w c #1c7ee4",
".x c #245ea4",
".y c #0c4e96",
".z c #043a6c",
".A c #0c72dc",
".B c #accaec",
".C c #1462b4",
".D c #74a6d4",
".E c #ccdae4",
".F c #043484",
".G c #3c76b4",
".H c #fcfefc",
".I c #144678",
".J c #044a9c",
".K c #5ca6ec",
".L c #3c72ac",
".M c #0c2a48",
".N c #eceef4",
".O c #446e98",
".P c #044084",
".Q c #2c5a90",
".R c #04366c",
".S c #6c96c1",
".T c #046ad4",
".U c #6c8299",
".V c #2472c4",
".W c #8ca2bc",
".X c #9cb2cc",
".Y c #ccd6e4",
".Z c #a4c6e4",
".0 c #0452b4",
".1 c #346394",
".2 c #dce1e4",
".3 c #b4c2d4",
".4 c #5c9fe1",
".5 c #547aa4",
".6 c #3c6ba1",
".7 c #3c8ad8",
".8 c #8caac9",
"#` c #0c56a8",
"#. c #7c8ea0",
"## c #8cb2d4",
"#a c #548ac4",
"#b c #6c7a8c",
"#c c #2476cc",
"#d c #2c4460",
"#e c #2c4e74",
"#f c #447ab7",
"#g c #54769c",
"#h c #1c66ac",
"#i c #3486dc",
"#j c #2465a9",
"#k c #448edc",
"#l c #347ecc",
"#m c #1c568c",
"#n c #3c7ec4",
"#o c #549aec",
"#p c #ccdeef",
"#q c #3c5a7c",
"#r c #dce7f2",
"#s c #6c8aac",
"#t c #849eb4",
"#u c #5c9ad4",
"#v c #043a8c",
"#w c #1c5e9c",
"#x c #9caec4",
"#y c #5c7ea4",
"#z c #b4bec8",
"#A c #2c72b4",
"#B c #0c2644",
"#C c #8492a4",
"#D c #b4cce1",
"#E c #84a2c4",
"#F c #6caaea",
"#G c #4c86c4",
"#H c #0c5ebc",
"#I c #64768c",
"#J c #6c9bcf",
"#K c #f4f7fa",
"#L c #1c3a58",
"#M c #1c6ebc",
"#N c #24527c",
"#O c #5c89b7",
"#P c #1c66b4",
"#Q c #0c6ed4",
"#R c #4c8ad4",
"#S c #b4bac4",
"#T c #1c7adc",
"#U c #043e9c",
"#V c #4c80bc",
"#W c #246ebc",
"#X c #c4d6ec",
"#Y c #04266c",
"#Z c #9cbee4",
"#0 c #0c4784",
"#1 c #0466cc",
"#2 c #949eac",
"#3 c #749ecc",
"#4 c #7c9ec4",
"#5 c #0c66cc",
"#6 c #0c5eb4",
"#7 c #2482e4",
"#8 c #74aae4",
"a` c #144a84",
"a. c #6c86a4",
"a# c #a4caf4",
"aa c #5ca2ec",
"ab c #8caed4",
"ac c #cce2fc",
"ad c #244264",
"ae c #3c82c4",
"af c #6c96cc",
"ag c #547eb4",
"ah c #0456b4",
"ai c #042e6c",
"aj c #24568c",
"ak c #04264b",
"al c #045eb4",
"am c #4c6a84",
"an c #04427c",
"ao c #04428c",
"ap c #04529c",
"aq c #043664",
"ar c #6496c4",
"as c #e4eaf1",
"at c #94b6dc",
"au c #4486cc",
"av c #c4d6e4",
"aw c #9ccaf4",
"ax c #0452a6",
"ay c #043676",
"az c #042a60",
"aA c #045ebe",
"aB c #2c7acc",
"aC c #5c7694",
"aD c #345e8c",
"aE c #d4e2ec",
"aF c #9cbedc",
"aG c #acc6dc",
"aH c #044a90",
"aI c #bcd6ec",
"aJ c #0466c4",
"aK c #042e54",
"aL c #2c669c",
"aM c #e4f2fc",
"aN c #d4eafc",
"aO c #146ec4",
"aP c #bccedf",
"aQ c #648eb8",
"aR c #1c5284",
"aS c #749ec4",
"aT c #7c9ebc",
"aU c #a4bed8",
"aV c #0c66c4",
"aW c #5c96d0",
"aX c #0c529c",
"aY c #accef4",
"aZ c #1466bc",
"a0 c #74aadc",
"a1 c #3c7abc",
"a2 c #0c2e4c",
"a3 c #ecf2f9",
"a4 c #2c5e94",
"a5 c #046edc",
"a6 c #8ca6c4",
"a7 c #9cb6d0",
"a8 c #b4c6dc",
/* pixels */
".H.H.H.H.H.H.H.H.H.H.H.H.H.H.H.H.H.H#K`faw`j#Faa`w#F`ja#ac#K.H.H.H.H.H.H.H.H.H.H.H.H.H.H.H.H.H.H",
".H.H.H.H.H.H.H.H.H.H.H.H.H.H.Ha3`A#o.w.Aa5.Aa5.Aa5.Aa5.Aa5#7`Ra#a3.H.H.H.H.H.H.H.H.H.H.H.H.H.H.H",
".H.H.H.H.H.H.H.H.H.H.H.H.H`4aa`ea5.Aa5.A.A.A.A.A.A.A.A.A.Aa5.A.A`e#F#r.H.H.H.H.H.H.H.H.H.H.H.H.H",
".H.H.H.H.H.H.H.H.H.H.H`1aa.Aa5.A.A.A.Aa5.Aa5a5.Aa5a5.Aa5.A.A.A.Aa5.A.A#Fa3.H.H.H.H.H.H.H.H.H.H.H",
".H.H.H.H.H.H.H.H.H.H`A`e#Qa5.Aa5a5a5a5.Aa5.Aa5a5.Aa5a5a5a5a5a5a5.Aa5.Aa5#TaY.H.H.H.H.H.H.H.H.H.H",
".H.H.H.H.H.H.H.H.H.4#Q#Q#Qa5#Qa5#Q#Qa5#Qa5#Qa5#Qa5#Q.A#Qa5#Q.A.T.A.T#Q.A#Qa5#8.H.H.H.H.H.H.H.H.H",
".H.H.H.H.H.H.Ha3.7#Q#Qa5`na5`n.T#Q.T#Q.T#Q.T#Q.T#Q.T.T#Q.T#Q.T#Q.T#Q.T.T#Q#Q.T`.#K.H.H.H.H.H.H.H",
".H.H.H.H.H.Ha3#i.T`n.T`n.T`n.T.T.T`n.TaJ.T`n.T`n.T`n.T.T`n.TaJ.T`n.T`n.TaJ#Q`n.T#k#K.H.H.H.H.H.H",
".H.H.H.H.H#K.7`n`n`n.T`n.T`naJ`n`naJ`n`naJ`naJ`naJ`naJ`naJ#Q`naJ#QaJ`naJ#QaJ`n`n.T`..H.H.H.H.H.H",
".H.H.H.H.H.4#5`n#1#1aV#1aJaV.TaJaJ`naJ.T`naJ.TaV.TaJ`naJ`naJaJ`naJaJ`naJ`n#1.TaV`naV#8.H.H.H.H.H",
".H.H.H.H`A.q.T`XaJaJaJaVaJaJaVaJaJaJaJaJaJaVaJaJaVaJaJaJaJaJaJaJaVaJaJaJaJaVaJaJaAaJaV.B.H.H.H.H",
".H.H.H#raO.qaJaV.qaJ.qaJ`XaV`X.qaJ.qaV`X.q`X`X.qaJ`XaV.qaJ.qaV`XaJ.q#1.q`X`XaAaV#l`n`X#ca3.H.H.H",
".H.H.H`H`XaV`X`X`X`X`X`X.q`X#1`X`X`X`X`X#1`X.q`X`X`X`X`X`X`X`X.q`X`X.qaV`XaO`FaB.H#RaA.qa0.H.H.H",
".H.H#p`XaA.qaA.qaA.qaA.qaAaA#HaA.qaA.qaA#H.q`X`X#H.q.q.q`X#H`XaA.qaA`X`E`J.j.H.Vau`7aA`XaZ#r.H.H",
".H.H.jaA.qalaAal#HaAaAaAaA#6aAalaA#HaA#6aA.0ahaAaAah.0`EaAaA#HaAaA.q`#`H.Z`F`yaAah`##H#6aA.D.H.H",
".H`1.qal`#`#al`#`#.t#6`#alalal.tal#6al`##6.s#l`3ahae#J#Wah#6alal#6`#.0#p.H.s`Jal#6al`#alal`r#K.H",
".H`M`#.t`#.t`##6`BataIax`#.t`#`#`3axax.0#D.H.H`y.s.H.H`1#Waxax`#`3.Cau.jat#P`#`#`#`#`#.t`#`#.B.H",
".H#a`#.t`#`3`##`ax.l`2ah`3`#.tah#P`U`Ua1aM.H.Hat#D.H#K.Haf#6#a`sax`U.H`U`Bax`#`3`3.tah`#.t`#.j.H",
"a3#P`3`3`3`3`3`3`J`i.H#j`B`3`B#U`2.H.H##.Z.H.H#V#Z.H.H.H`2as.H#p#j`1.H.r#Pax`3#``3`3`3`3`3#`#A.H",
"#XaXaxaxaxaXax`3ax`s`2`i`B`3`u`2#J.H.H`m`B`m`i.J#j`Ua3#3ab.H#K.H#V#V#r#J`k`3axaxaxaxaxaXaxax.t.2",
"`Max`3apaxaxap`Bap`kaE.H.J#f.H.H#3.G.f`B`k.J.J`B`k.J#``g.S.H.H#K.f#j.J.J`Bapapapaxapaxapaxapap#D",
"`u`kaX`k`k`k`k`k`k`k`2aP.S#fa3.H#O#v.J`k`k`B`k`kap`k`kap`k`ua8`xa3.H`x.Jap`k`k`k`k`k`k`k`kaX`kab",
"`m`k`k`k`k.y`k`k`k.J.F`U.H.u#w.G`P`k`k`k`k`k`k`k`k`k`k`k.J`P.Fab.H.H.NaXaH`k`k`k.y`k`k.y`k`k`k.d",
"#OaH.eaHaHaHaH.e`k.y#j`N.H.8.F`g`kaHaHaHaHaHaHaHaHaHaHaHaH.y.Fag.H.HaG#w.e`P`kaHaHaHaHaHaHaHaHaQ",
"#O`PaHaHaHaH.e`P`Ca7.H#E`0.8#X.L.P.yaH`P`PaH`PaH`PaH`PaH`P.yaS`u.`#O.k.H#D.eaoaH`PaH`PaH`PaHaHaQ",
"aQ`P`O.P#v.Pay`W.S`8.H#4`h.H.Hav.P#v`O`P`P`P`O`P`PaH.e.e.Pa8.H.H`z.a`1.H.H.6.y.PaH#0`PaHaH#0`P.c",
"aT`O.P`Q#E.d.o`z.H.c.6#0`h.N.H`Q#0#f#0`c`O`O`P`O`O.#.#`C.b#K.H#K.H.6`Q.H`z`8.HaQ`C#v`c#v.#`P.Pab",
"a7#0ay`Qa6aP.H.ia8.Q`C.P.Pa4`S.1.N.H`8.P.#.#.#.P.#.1a7.X`h`z.H.H.N.b`ca4`ha3.H.o.ca8#maUa6`c.P#D",
".Y`c`cay`CaRa4`Cay.#.Pan`c`c#Y.i.H#K.H.Q`T`L`Na`#m.r.H.H.2.6.3`z.O.#.P.#ay.c`z`Sas.H.i.N`L.##0#r",
"`IaR`can`c.#ay`c`c`c`c`c`c`cay.O.H.H.E.O.H.H.H.k#s.H.H#K.H#g#Yayay`c`c`c`c`C`l`l.i.3a`#N`v.#`0.H",
".H.5.#`c.#`c`c.z`c.#.#.#.#`c.#ay.O#t.I#g.H.r.H.Y#y.H.H.H.H.O`lan`c.#.#.#.#`c`c.#`l`C.Ray.#.##s.H",
".H.k.z.#.z.z.z.#.z.z.z.z.z.z.z.#.n#Y`l..as.H.H.Wai.u.H.H#x`C.#.z.R.z.z.z.z.z.#.#.#.z.#.z.z.z.3.H",
".Has.I.R.R.R.R.R.R.R.R.R.R.R.R.R.#.#.#.n#N#t#y.R`l`l.1`K`l.R.R.R.R.R.R.R.R.R.R.R.R.R.R.z.RaR#K.H",
".H.H`p.R.zaq.Raq.R.R.R.R.R.R.Raq.Raq.R.Rai`D`D.R.R.Raz.n.R.Raq.R.R.R.R.R.R.Raq.Raq.R.R.z.R`d.H.H",
".H.H`Laq`l`l`l`l`l`l`l`l`l`l`l`l`l`l`l`laq.R.R`l`laq.R.R`l`l`l`l`l`l`l`l`l`l`l`l`l`l`l`l.vas.H.H",
".H.H.Ha.`l`l`l`l`l`l`l`l`l`l`l`l`l`l`l`l.n`l`l`l`l`l.n`l`l`l`l`l`l`l`l`l`l`l`l`l`l`laq`l`d.H.H.H",
".H.H.Has`t.n`l.n.n.n.n.n.n.n.n.n.n.n.n.n.n.n.n.n.n.n.n.n.n.n.n.n.n.n.n.n.n.n.n.n.n`laK#N.r.H.H.H",
".H.H.H.H.kaK.naK.naK.naK.naK.naK.naK.n.n.n.naK.n.naK.n.n.naK.n.naK.naK.naK.naK.naK.n`Z.3.H.H.H.H",
".H.H.H.H.H.UazaKaKazaK`ZaK`ZaK`Z.n`ZaK`ZaK`Z.n`ZaK`ZaK`ZaK`ZaK`ZaK`Z.n`ZaK`ZaK`Z.n`Z`d.H.H.H.H.H",
".H.H.H.H.H.H`b`ZaK`Z`Z`Z`Z`Z`Z`Z`Z`Z`Z`Z`Z`Z`Z`Z`Z`Z`Z`Z`Z`Z`Z`Z`Z`Z`Z`Z`Z`Z`Z.n`ZaC.H.H.H.H.H.H",
".H.H.H.H.H.H#K#q`Z`Z`Zak`Z`D`Zak`Z`D`Zak`Z`D`Zak`Z`D`Zak`Z`D`Zak`Z`D`Zak`Z`DaK`Zam.H.H.H.H.H.H.H",
".H.H.H.H.H.H.H.r`bak`Z`Zakakakakakakakakakakakakakakakakakakakakakakakak`Z`Zak`G.H.H.H.H.H.H.H.H",
".H.H.H.H.H.H.H.H.H.Uakak`Zakakakakakakakakakakakakakakakakakakakakakak`Zakak#..H.H.H.H.H.H.H.H.H",
".H.H.H.H.H.H.H.H.H.H`a#L``akakak``ak``ak``ak``ak``ak``ak``ak``akakakak```t.p.H.H.H.H.H.H.H.H.H.H",
".H.H.H.H.H.H.H.H.H.H.Ha3.U.M``````ak``````````````````````akak``````a2#.#K.H.H.H.H.H.H.H.H.H.H.H",
".H.H.H.H.H.H.H.H.H.H.H.H.H.2.U`6````````````````````````````````#L#.as.H.H.H.H.H.H.H.H.H.H.H.H.H",
".H.H.H.H.H.H.H.H.H.H.H.H.H.H.H.r`a`G#dak````````````````ak#d#I#z#K.H.H.H.H.H.H.H.H.H.H.H.H.H.H.H",
".H.H.H.H.H.H.H.H.H.H.H.H.H.H.H.H.H.H.H.m#S`5#b#I#I#b`5#z.2.H.H.H.H.H.H.H.H.H.H.H.H.H.H.H.H.H.H.H"
};
