/* XPM */
static char *bitcoin32_xpm[] = {
/* width height num_colors chars_per_pixel */
"    32    32      256            2",
/* colors */
"`` c #042244",
"`. c #3c92e4",
"`# c #045aac",
"`a c #a4b6cc",
"`b c #44668c",
"`c c #043e74",
"`d c #c4def4",
"`e c #1476dc",
"`f c #24568c",
"`g c #7c92a4",
"`h c #044e94",
"`i c #345a84",
"`j c #447ebc",
"`k c #a4caf4",
"`l c #7cb2ec",
"`m c #04325c",
"`n c #046ed4",
"`o c #044294",
"`p c #647e94",
"`q c #7ca2c4",
"`r c #145a9c",
"`s c #c4ced4",
"`t c #14467c",
"`u c #044eac",
"`v c #e4eaec",
"`w c #042664",
"`x c #5c92c4",
"`y c #0462bc",
"`z c #a4c2e4",
"`A c #044684",
"`B c #548ecc",
"`C c #043274",
"`D c #8ca6c4",
"`E c #5c7a9c",
"`F c #547eac",
"`G c #4c7294",
"`H c #246ebc",
"`I c #b4cadc",
"`J c #74a2d4",
"`K c #042a4c",
"`L c #648eb4",
"`M c #1456a4",
"`N c #f4fafc",
"`O c #6caeec",
"`P c #043e84",
"`Q c #2c76bc",
"`R c #1c4e84",
"`S c #9ccaf4",
"`T c #ccd6dc",
"`U c #0456a4",
"`V c #5c9ad4",
"`W c #043a74",
"`X c #b4d2ec",
"`Y c #0c5aac",
"`Z c #b4becc",
"`0 c #d4deec",
"`1 c #849ebc",
"`2 c #94b2d4",
"`3 c #0c62bc",
"`4 c #b4c2d4",
"`5 c #5486bc",
"`6 c #a4bedc",
"`7 c #54667c",
"`8 c #14324c",
".` c #1c72cc",
".. c #044a94",
".# c #ecf2fc",
".a c #0c467c",
".b c #3c6a9c",
".c c #7c8a9c",
".d c #2c86dc",
".e c #dce6ec",
".f c #4c96dc",
".g c #4482c4",
".h c #043a6c",
".i c #0c72d4",
".j c #1462b4",
".k c #eceeec",
".l c #042e64",
".m c #54728c",
".n c #74aadc",
".o c #142e4c",
".p c #d4dae4",
".q c #9cbedc",
".r c #045abc",
".s c #0c3e74",
".t c #7496bc",
".u c #2462ac",
".v c #04326c",
".w c #84a2bc",
".x c #6c92b4",
".y c #8caed4",
".z c #5c7eac",
".A c #b4cee4",
".B c #042a5c",
".C c #6c8aac",
".D c #1c5694",
".E c #c4d6ec",
".F c #0456b4",
".G c #043a84",
".H c #9cb2cc",
".I c #04265c",
".J c #acb6c4",
".K c #446a94",
".L c #34526c",
".M c #0c4e94",
".N c #0c6acc",
".O c #1c4a84",
".P c #0452b4",
".Q c #e4eefc",
".R c #0466cc",
".S c #acc2d4",
".T c #043674",
".U c #4c7aac",
".V c #044284",
".W c #3c76b4",
".X c #649ad4",
".Y c #bcd2ec",
".Z c #0c66cc",
".0 c #bcc6cc",
".1 c #044aa7",
".2 c #0c4a8c",
".3 c #3c72a8",
".4 c #dceafc",
".5 c #5496dc",
".6 c #1c66b7",
".7 c #042e78",
".8 c #84aedc",
"#` c #34669c",
"#. c #3c82cc",
"## c #2476cc",
"#a c #6486ac",
"#b c #547aa4",
"#c c #6c9ac7",
"#d c #2c72bc",
"#e c #347ecc",
"#f c #749ecc",
"#g c #4476ac",
"#h c #7c9ab4",
"#i c #accae4",
"#j c #ccd2e0",
"#k c #2c6aac",
"#l c #8c9aac",
"#m c #2c669c",
"#n c #3c7ebc",
"#o c #4c667c",
"#p c #4c7eb0",
"#q c #5c86b1",
"#r c #acbed0",
"#s c #7c9ebc",
"#t c #bccad4",
"#u c #348ae4",
"#v c #4c86c4",
"#w c #ccdaec",
"#x c #3c566f",
"#y c #4496e4",
"#z c #6482a4",
"#A c #145eac",
"#B c #6496c4",
"#C c #94aac4",
"#D c #fcfafc",
"#E c #5c9ee4",
"#F c #0c5ebc",
"#G c #4c9aec",
"#H c #acc6e4",
"#I c #accef4",
"#J c #84b2e4",
"#K c #5c8ec4",
"#L c #647a94",
"#M c #0c56a4",
"#N c #94aecc",
"#O c #0c3a8c",
"#P c #04264c",
"#Q c #045eb4",
"#R c #a4bad4",
"#S c #04427c",
"#T c #04529c",
"#U c #043664",
"#V c #044696",
"#W c #7ca6cc",
"#X c #144a80",
"#Y c #0452a7",
"#Z c #e4eef4",
"#0 c #042a6c",
"#1 c #0466c4",
"#2 c #044a8c",
"#3 c #5482b0",
"#4 c #74a6dc",
"#5 c #042e54",
"#6 c #1c528c",
"#7 c #ccdae4",
"#8 c #5c9edc",
"a` c #0c5eb4",
"a. c #d4e2f0",
"a# c #94b6dc",
"aa c #0c66c1",
"ab c #b4c6dc",
"ac c #546a80",
"ad c #0c4a84",
"ae c #dceaf4",
"af c #4486cc",
"ag c #1466bc",
"ah c #74aee4",
"ai c #84a6c4",
"aj c #6c8eb0",
"ak c #c4daf4",
"al c #9cb6d0",
"am c #0c6ed2",
"an c #bcd6f4",
"ao c #8c9eb4",
"ap c #bccedc",
"aq c #a4c6e4",
"ar c #8caac4",
"as c #3c6e9c",
"at c #7c8e9c",
"au c #045ebc",
"av c #0c4274",
"aw c #2466ac",
"ax c #04366c",
"ay c #5c82ac",
"az c #042e5c",
"aA c #acbac4",
"aB c #fcfefc",
"aC c #045ab4",
"aD c #043e7c",
"aE c #044e9c",
"aF c #043264",
"aG c #7ca2cc",
"aH c #e4eaf4",
"aI c #0462c4",
"aJ c #04468c",
"aK c #04327c",
"aL c #4c729c",
"aM c #042a54",
"aN c #648ebc",
"aO c #043e8c",
"aP c #1c4e8c",
"aQ c #0456ac",
"aR c #043a7c",
"aS c #b4d2f4",
"aT c #044a9c",
"aU c #0c4684",
"aV c #dce6f4",
"aW c #4c96e4",
"aX c #0c72dc",
"aY c #eceef4",
"aZ c #042e6c",
"a0 c #74aae4",
"a1 c #b4ceec",
"a2 c #1c569c",
"a3 c #0456bc",
"a4 c #043a8c",
"a5 c #446a9c",
"a6 c #04367c",
"a7 c #04428c",
"a8 c #bcc6d4",
/* pixels */
"aBaBaBaBaBaBaBaBaBaBaB.4`S`O#G`.#y#G`O`k.QaBaBaBaBaBaBaBaBaBaBaB",
"aBaBaBaBaBaBaBaBaB#IaW`eaXaXaX`naXaXaX`n`e#GaSaBaBaBaBaBaBaBaBaB",
"aBaBaBaBaBaBaBan.damaX`naX`naXaXaX`naXaX`naX`n#u`daBaBaBaBaBaBaB",
"aBaBaBaBaBaBaham`naX`n`n`nam`n`n`nam`n`namaXamamam`laBaBaBaBaBaB",
"aBaBaBaB#D.5`namam`nam`nam`nam`nam`nam`n`n`n`namam`n#E#DaBaBaBaB",
"aBaBaBaB.5`n.N.Z`n.Z.R.Z`n.Z.R.Z.R.R.Z.R.Z.Z.R.Z`n.N.N#EaBaBaBaB",
"aBaBaBa0.R.N.Z.R#1.Z.R.R.Z.R.R.R.N.R.R.N.R.R.N.R.R.Z.ZaI#JaBaBaB",
"aBaB.Y#1aaaI#1`3#1aIaa#1aI#1aaaI#1aaaI#1aaaI#1`3aaa3.`.`aIakaBaB",
"aBaB#e`y`3`y`3aI`y`3`y`y`3`y`3`3aI`3`3aI`y`3aI.r.r`V#4.n.FafaBaB",
"aB#Hau#Faua`.F#Qauauau#F`3aC.PaCaC.PaCau#FauaC#..X`JagaC`y#Q`XaB",
"aB#vaC#Q#Q.F#..6`#aCa`#Y.1`Ha#`H`Q.q.g#YaCa`.1.8ae`uaC#Qa`aC#KaB",
"aVa``##M`##Ya##n#YaQ#Y.X`B`zaB#H.YaBa..6#d#Y#H.A.j`#`#aQaQ`#.6#Z",
".q`U`UaQ#MaT#B#K.1`Y.6`NaY#f#Z`x.qaB.EakaB#Ba..#`Y#Y`U`U`U`U`U#H",
"#c#Y#M#T#YaT`j#w...E`v#c#c#V#YaT`M`jaw`vaB.y#k.u#T#T#T#MaE#M#YaG",
"#p`haE`haE`h`r`I`2.qab`o`o#T`haE`h#V#V.WaGaH`N#maTaEaE`haEaE`h#q",
".3...M`h.M..`oaGaB#6a4`h.M....`h..`h`h`P#Oa.aB#3a7.M.......M..#g",
".3#2`P`P.GaJ#w`I`Fae#pa6#2#2#2aJ#2.2aJ#m#Hai`LaBalaKaJ#2#2#2#2#g",
".U.V`L#q`qaY#R.b#qaB.t.D.2.V`P.V.V.G.7#RaBaY.zaB#w#r#`a6`P`P.V#3",
".x.Vay#C`6aj#XaKad`f`1aB#NaRasaDaP`I.H.waB`0aUaU`FaB`aap#s#t.V#s",
"al`c`C.T.TaZaD#SaD#0`DaB`a#NaB.HaraBaB`1#6.O`W`WaD`Ra5#w#b#aaD.S",
".eav`c`W`c`c`W`W`W`WavaL`t.paB#j#haBaBaj`w`W`c`W`c.Tax.v.vaZ#X#Z",
"aBaLax.haxaxax.hax.haxaZ.l.b`4.KaF.C#zax.h.haxax.h.h.h`W`W.h`EaB",
"aB#r.v.hax#U.vaxaFaxax#Uax.B.Iazax.I.I.v#U.v#U.v#U.vaFax#UaxabaB",
"aBaB`i`maFaFaF`maF.laFaF`maF#UaFaF#U#UaFaFaFaFaFaFaFaFaFaF`baBaB",
"aBaB#taz`mazazazazazazazazazazazazazazazazazazazazazaz`m`m#jaBaB",
"aBaBaB`g.B`maM#5.B#5#5aMaz#5az#5#5.B#5aM#5aM#5aM#5aM`maM`1aBaBaB",
"aBaBaBaB.maM#5aMaMaMaMaMaM.I`K.I`KaMaMaMaMaMaMaMaM#5aM`paBaBaBaB",
"aBaBaBaBaB.m#P`K.I#P#P#P#P#P#P#P#P#P#P#P#P#P#PaM`K#P#LaBaBaBaBaB",
"aBaBaBaBaBaB`g#P#P#P`K#P#P#P#P#P#P#P#P#P#P`K#P#P#P#laBaBaBaBaBaB",
"aBaBaBaBaB#DaB`s.L````````#P#P#P#P#P#P````````#x`TaBaBaBaBaBaBaB",
"aBaBaBaBaBaBaBaBaB`Z#o.o`````````````````8ac.0aBaBaBaBaBaBaBaBaB",
"aBaBaBaBaBaBaBaBaBaBaB`v.J.c#o#x#x`7.caA`vaBaBaBaBaBaBaBaBaBaBaB"
};
