/* XPM */
static char *_63616cbe0454dc5fa589356991d3163NEyZeGbrmK3vrNZk[] = {
/* columns rows colors chars-per-pixel */
"32 32 225 2 ",
"   c None",
".  c #1B1A1A",
"X  c #212020",
"o  c gray13",
"O  c #272727",
"+  c #2B2A2A",
"@  c #2D2C2C",
"#  c #2D2D2D",
"$  c #2E2D2D",
"%  c gray19",
"&  c #343434",
"*  c #353535",
"=  c #383737",
"-  c gray22",
";  c #3A3838",
":  c #3A3939",
">  c #3B3A3A",
",  c #3E3D3D",
"<  c #3F3E3E",
"1  c #403F3F",
"2  c #414040",
"3  c #444343",
"4  c #454343",
"5  c #454444",
"6  c #464444",
"7  c #464545",
"8  c #474646",
"9  c #494848",
"0  c #4A4848",
"q  c #4B4A4A",
"w  c #4C4A4A",
"e  c #4C4B4B",
"r  c #4D4B4B",
"t  c #4D4C4C",
"y  c #4E4C4C",
"u  c #4E4D4D",
"i  c #4F4E4E",
"p  c #504E4E",
"a  c #515050",
"s  c #525050",
"d  c #525151",
"f  c #535252",
"g  c #555454",
"h  c #585757",
"j  c #595757",
"k  c #595858",
"l  c #5A5858",
"z  c #5A5959",
"x  c #5B5A5A",
"c  c #5C5B5B",
"v  c #5D5B5B",
"b  c gray36",
"n  c #5E5C5C",
"m  c #5F5D5D",
"M  c #5F5E5E",
"N  c #605E5E",
"B  c #615F5F",
"V  c #616060",
"C  c #626060",
"Z  c #636161",
"A  c #646262",
"S  c #646363",
"D  c #656464",
"F  c #666565",
"G  c #676565",
"H  c #676666",
"J  c #686666",
"K  c #696666",
"L  c #686767",
"P  c #696767",
"I  c #696868",
"U  c #6A6868",
"Y  c #6B6969",
"T  c #6C6A6A",
"R  c #6C6B6B",
"E  c #6D6B6B",
"W  c #6D6D6D",
"Q  c #6E6C6C",
"!  c #6F6C6C",
"~  c #6F6D6D",
"^  c #6F6E6E",
"/  c #706E6E",
"(  c #706F6F",
")  c #716F6F",
"_  c #726F6F",
"`  c #727070",
"'  c #727171",
"]  c #737171",
"[  c #737272",
"{  c #757272",
"}  c #767474",
"|  c #777575",
" . c #777676",
".. c #797676",
"X. c #787777",
"o. c #797777",
"O. c #7A7777",
"+. c #797878",
"@. c #7A7878",
"#. c #7C7A7A",
"$. c #7D7B7B",
"%. c #7E7C7C",
"&. c #7E7D7D",
"*. c #7F7E7E",
"=. c #807D7D",
"-. c #807E7E",
";. c #817F7F",
":. c #827F7F",
">. c #828080",
",. c #838181",
"<. c #848181",
"1. c #848282",
"2. c #858282",
"3. c #858383",
"4. c #868484",
"5. c #878585",
"6. c #888585",
"7. c #888787",
"8. c #8A8888",
"9. c #8B8888",
"0. c #8A8989",
"q. c #8B8989",
"w. c #8D8A8A",
"e. c #8E8C8C",
"r. c #908D8D",
"t. c #918E8E",
"y. c #928F8F",
"u. c #919090",
"i. c #929090",
"p. c #939191",
"a. c #939292",
"s. c #949292",
"d. c #959292",
"f. c #949393",
"g. c #959393",
"h. c #969393",
"j. c #959494",
"k. c #969494",
"l. c #979494",
"z. c #989696",
"x. c #999696",
"c. c #999797",
"v. c #9A9797",
"b. c #999898",
"n. c #9A9898",
"m. c #9B9999",
"M. c #9C9999",
"N. c #9C9A9A",
"B. c #9D9A9A",
"V. c #9D9B9B",
"C. c #9E9B9B",
"Z. c #9F9D9D",
"A. c #A09D9D",
"S. c #A09E9E",
"D. c #A19E9E",
"F. c #A19F9F",
"G. c #A29F9F",
"H. c #A1A0A0",
"J. c #A2A0A0",
"K. c #A3A0A0",
"L. c #A3A1A1",
"P. c #A3A2A2",
"I. c #A4A2A2",
"U. c #A5A2A2",
"Y. c #A5A3A3",
"T. c #A6A2A2",
"R. c #A6A4A4",
"E. c #A7A4A4",
"W. c #A8A5A5",
"Q. c #A8A6A6",
"!. c #A9A6A6",
"~. c #A9A7A7",
"^. c #AAA6A6",
"/. c #AAA7A7",
"(. c #A9A8A8",
"). c #AAA8A8",
"_. c #ABA8A8",
"`. c #AAA9A9",
"'. c #ABA9A9",
"]. c #ACA9A9",
"[. c #ADA9A9",
"{. c #AEABAB",
"}. c #AFACAC",
"|. c #AFADAD",
" X c #B1AFAF",
".X c #B2B0B0",
"XX c #B3B0B0",
"oX c #B3B1B1",
"OX c #B3B2B2",
"+X c #B4B0B0",
"@X c #B4B2B2",
"#X c #B5B2B2",
"$X c #B4B3B3",
"%X c #B6B4B4",
"&X c #B6B5B5",
"*X c #B7B5B5",
"=X c #B8B5B5",
"-X c #B9B5B5",
";X c #B9B6B6",
":X c #B9B7B7",
">X c #BAB7B7",
",X c #BBB8B8",
"<X c #BBB9B9",
"1X c #BCB9B9",
"2X c #BCBABA",
"3X c #BDBABA",
"4X c #BCBBBB",
"5X c #BDBBBB",
"6X c #BEBCBC",
"7X c #BFBDBD",
"8X c #C0BDBD",
"9X c #C0BEBE",
"0X c #C1BFBF",
"qX c #C2BFBF",
"wX c #C2C0C0",
"eX c #C3C0C0",
"rX c #C3C1C1",
"tX c #C4C1C1",
"yX c #C5C3C3",
"uX c #C5C4C4",
"iX c #C7C4C4",
"pX c #C8C6C6",
"aX c #C9C6C6",
"sX c #C9C7C7",
"dX c #CAC8C8",
/* pixels */
"                          W 5.j.j.9.W                           ",
"                    i.6X6X).j.9.9.j.H.dXsXj.                    ",
"                n.6Xp.l             % @XG.p.rXn.                ",
"            b 4Xe.                  V.).    - i.rXg             ",
"          ] @Xl                   E <X9         l 6X]           ",
"        Y ).                    O OX]             2 -XJ         ",
"      9 Y.                      } E.    2 dXH       < @X7       ",
"      n.l                       /.Y     2 E.dXH       f H.      ",
"    E o.                      2 [.&       7 Y.sXH       ,.W     ",
"    i.                        Z V.          4 H.iXZ     @ z.    ",
"  c )                         o.3.    o.      7 H.yXZ     #.S   ",
"  -.>                         -.}     Z.G.      7 Z.rXS 7 [.6.  ",
"X ,.                          3.]     Y <Xz.      ; p.yXqXz.p.  ",
"> }                           -.o.      E -Xz.      z.^.o.+ o.y ",
"9 J                           9.3.        ] -XG.p.,XV.c     J c ",
"f b             E p.).@X-X-X4X/.[./.Z.G.H.[.Y.[.G.)         B B ",
"p E         V.4X4X X-.) ) ] ) l.V.6.y.y.9.-.E f             b S ",
"0 ]     -.,Xz.B / [.w.        ) 6.                          J f ",
"= 3.  G.qX3.      _ -Xp.      J w.                          o.= ",
". Y.sXv.V. Xf       ) 4Xw.    J 9.                          3.  ",
"  3.y.@ 4 Y.qXh       o.z.    W 5.                        1 o.  ",
"  l &.    e Y.yXc       l     -.#.                        o.f   ",
"  X l.      e E.yXh           n.Y                       @ y.    ",
"    J 9.      e /.sXl       $ [.7                       -.B     ",
"      V.l       y /.sXe     Y E.                      b y.      ",
"      < OX        f G.e     [.}                     Z E.        ",
"        l 6X        >     +. X                    &. Xp         ",
"          l 6X)         9 6XS                   i.OXf           ",
"            7 }.).    & <X5.                  OXH.1             ",
"                +.4X&XiXOX              G.4X@X]                 ",
"                  $ W n. XiX6X&X&XOX4X4XH.W                     ",
"                          y H ) W H y                           "
};
