/* XPM */
static char *_15ad1eb117a40b0c47cd92a9145e3ed6UA1wmnhWqPXVhB1[] = {
/* columns rows colors chars-per-pixel */
"64 64 133 2 ",
"   c None",
".  c #0B0A0A",
"X  c #100F0F",
"o  c #131313",
"O  c #181717",
"+  c #1D1C1C",
"@  c #242323",
"#  c #282727",
"$  c #2C2B2B",
"%  c #302F2F",
"&  c #353434",
"*  c #383737",
"=  c #3B3A3A",
"-  c #403F3F",
";  c #444343",
":  c #484747",
">  c #4C4B4B",
",  c #504F4F",
"<  c #545252",
"1  c #585757",
"2  c #5D5C5C",
"3  c #605F5F",
"4  c #646363",
"5  c #686666",
"6  c #6C6B6B",
"7  c #706F6F",
"8  c #747272",
"9  c #787676",
"0  c #7C7B7B",
"q  c #817E7E",
"w  c #848383",
"e  c #888686",
"r  c #8C8A8A",
"t  c #918E8E",
"y  c #959292",
"u  c #999696",
"i  c #9D9A9A",
"p  c #A19E9E",
"a  c #A5A2A2",
"s  c #A9A6A6",
"d  c #ACAAAA",
"f  c #B0AEAE",
"g  c #B1AEAE",
"h  c #B2AFAF",
"j  c #B0ADAD",
"k  c #B1AEAE",
"l  c #B2B0B0",
"z  c #B3B0B0",
"x  c #B3B1B1",
"c  c #B4B0B0",
"v  c #B4B1B1",
"b  c #B4B2B2",
"n  c #B4B3B3",
"m  c #B6B3B3",
"M  c #B6B4B4",
"N  c #B7B4B4",
"B  c #B7B5B5",
"V  c #B7B6B6",
"C  c #B5B2B2",
"Z  c #B8B5B5",
"A  c #B8B6B6",
"S  c #B9B6B6",
"D  c #B8B7B7",
"F  c #B9B7B7",
"G  c #B9B6B6",
"H  c gray72",
"J  c #BAB8B8",
"K  c #BBB8B8",
"L  c #BBBABA",
"P  c #BCB9B9",
"I  c #BCBABA",
"U  c #BDBABA",
"Y  c #BEBBBB",
"T  c #BEBCBC",
"R  c #BFBCBC",
"E  c #BDBBBB",
"W  c #C0BEBE",
"Q  c #C1BEBE",
"!  c #C1BFBF",
"~  c #C1BEBE",
"^  c #C3C1C1",
"/  c #C4C1C1",
"(  c #C5C2C2",
")  c #C5C3C3",
"_  c #C6C4C4",
"`  c #C4C2C2",
"'  c #C9C6C6",
"]  c #CAC8C8",
"[  c #CDCBCB",
"{  c #CECCCC",
"}  c #CFCDCD",
"|  c #CCCBCB",
" . c #D0CECE",
".. c #D0CFCF",
"X. c #D1CFCF",
"o. c #D0CFCF",
"O. c #D2D0D0",
"+. c #D3D1D1",
"@. c #D3D2D2",
"#. c #D4D2D2",
"$. c #D4D3D3",
"%. c #D5D3D3",
"&. c #D5D4D4",
"*. c #D6D5D5",
"=. c #D7D5D5",
"-. c #D4D2D2",
";. c #D9D7D7",
":. c #D9D8D8",
">. c #DAD8D8",
",. c #DBDADA",
"<. c #DCDADA",
"1. c #DCDBDB",
"2. c #DDDBDB",
"3. c #DEDCDC",
"4. c #DEDDDD",
"5. c #DBDADA",
"6. c #E0DFDF",
"7. c #E0DFDF",
"8. c #E2E1E1",
"9. c #E3E1E1",
"0. c #E4E2E2",
"q. c #E4E3E3",
"w. c #E4E3E3",
"e. c #E8E6E6",
"r. c #E8E7E7",
"t. c #E9E8E8",
"y. c #EBE9E9",
"u. c #EBEAEA",
"i. c #EDEBEB",
"p. c #EDECEC",
"a. c #EEECEC",
"s. c #EEEDED",
"d. c #EBE9E9",
/* pixels */
"                                                                                                                                ",
"                                                3 y L &.q.p.s.s.s.s.p.q.&.N t 2                                                 ",
"                                          8 N 9.t.,._ x a u y y y y i s H @.9.t.1.N 6                                           ",
"                                      u 1.t.] a r e w w 9 8 6 6 5 6 8 9 0 6 i T ) ,.s.,.y                                       ",
"                                  i q.1.d e 0 0 6 >                       @ y ^ P s y N w.9.y                                   ",
"                              9 ,.,.p 0 0 6                               8 Q T i 8 2 0 r d q.&.6                               ",
"                          & b 9.d 0 9 2                                 1 Q Q i 8       1 8 e P t.d                             ",
"                        1 @.[ e 9 4                                   $ d T d 9 ;         + 1 9 y 1.[ >                         ",
"                      6 1.x 0 6                                       r T x 0 <               % 6 e ) <.5                       ",
"                    0 <.p 8 4                                       1 N F r 2                     1 0 x 1.8                     ",
"                  8 $.y 8 <                                       @ i P i 6                         > 0 d 1.6                   ",
"                4 [ y 7                                           6 N N 9 ;         y 6               ; 0 d $.1                 ",
"              ; Q i 6                                           # i L y 2         ; Q =.3               ; 8 b ) *               ",
"            @ s s 7 ;                                           2 x x 8         + r h W $.3               ; 0 P s               ",
"            0 x 8 >                                           + r N u 1         & 0 a h P $.3               > e ) 8             ",
"          > g e 4                                             = a N 0 *           < q s g P $.3             . 1 u F ;           ",
"        + y i 5                                               3 g d 4               < q a g P $.3             @ 6 b r           ",
"        1 d 9 ;                                             o 0 b y >                 < q a g P @.2             - e F <         ",
"      + y y 2                                               @ r N w &                   < 0 a d F @.2           o 3 d r         ",
"      < a 9 &                                               & y b 7                       < 0 a d F  .3           & w g >       ",
"    o q i 1                                                 ; p d 3         e >             < 0 a d F  .3         o 2 d 0       ",
"    & i q *                                                 > a a 1       . 0 _ *             < 0 p d F  .2         * a u *     ",
"    1 p 5                                                   < s p >       o 8 ) ^ *             < 0 p s b  .3     + r s d <     ",
"  o 0 y >                                                   1 s i ;       + 9 d ^ Q =             < 9 p d b [ 6 ; s Q s j 8     ",
"  # t w &                                                   1 d u ;       @ 6 y s W W *             , 0 p s g 7.q.T s d g r &   ",
"  - i 6                                                     2 d y ;         - 8 i s W W *             : 6 s s s s s w 8 u u ;   ",
"  < i 2                                                   . 3 s u >           ; 8 i s W Q =             , p s d p 8 4 $ 5 a >   ",
". 4 u >                                                   . 2 s i >             - 7 i a W P *         w Q a d t 6 3     < a 2   ",
"X 7 t -                                                     1 s i ,               ; 7 i a P Q ,   w ] [ g p q 6 ,       ; i 5   ",
"O 9 t &                                                   @ 8 a s 2                 @ w s p F 7.<.[ x a r 7 4           * y 7   ",
"+ q e %                             < 0 u d L _ [ [ @. .[ ,.F p a P a r e q 0 w e y N a a a a s s p r 8 6 >             & y 8   ",
"+ q e %                       0 b @.&. ._ ^ P N b b g b b g s a a b ]  .[  .@.@.X.] ( j s s p t q 7 6 1                 $ t 8   ",
"+ q e *                 > a $. .K s p p i t e w q w w w w r p a a a i i u i i y y t t w q 9 8 8 5 ,                     % t 7   ",
"+ 0 r ;             = a $.) s p a s a s w ; 2 5 5 4 4 5 5 < 7 a s q 4 8 8 9 9 8 8 8 7 7 5 3 :                           & y 6   ",
"O 8 y ;           q  .! s i q 8 8 i s s i *                 : p s 4 @                                                   * u 5   ",
"o 6 i >       * g [ s p q 7 4 ; = 7 u s b F &               - u s 4                                                     ; u 4   ",
". 3 p <     2 ] P a p 5 2 ;       : 8 i s T P &             = u s 4                                                     1 i <   ",
"  , p e - e [ g a d a <             : 8 u s Q L &           & y j 4                                                   . 6 u :   ",
"  - t X.y.[ s s d s d b ;             : 0 u s Q L &         & y d 4                                                   + w r *   ",
"  $ w g d d t 7 q a d P _ >             ; 9 u s ) y         & y j 3                                                   & u 0     ",
"  + 6 d d r 6 * : 0 a s L _ >             ; 0 u g w $       * u s 3                                                   1 p 4     ",
"    < a i 3 =     2 q a s P _ >             ; 0 p 9         ; i s 3                                                 o 0 y >     ",
"    * t p =         2 q s d P _ >             > 0 3         > s a <                                                 & i 0 &     ",
"    + 6 d 4           2 q s d P [ >             ; 4         3 d p >                                                 6 p 4       ",
"      < i u ;           2 q s d P ] >             $       . 8 x y ;                                               # u e >       ",
"      # 0 b 5             2 q s d T ] >                   + r F w &                                               6 s 6         ",
"        < i a -             2 w d g T ] >                 - p b 8                                               & a r ,         ",
"        # 8 F q               2 w d g Q ] >               4 g s 3                                             o e a 6           ",
"          > t T 1               3 w d d ^ [ >           + t F y >                                             5 g 0 >           ",
"          o 5 s L *               2 w d g _ s &         > s N 9 &                                           : b t 5             ",
"            & 8 L b                 2 w d g 9 *       o e F a 4                                           & x s 7               ",
"              > q _ d                 4 e q 2         , d F q ;                                         * b b 8 >               ",
"                2 e  .g                 2 0         + y L a 6                                         - L T 9 1                 ",
"                . 6 r $.L                           8 N N 0 ;                                       1 ] Q 0 4                   ",
"                  O 6 e  .[ >                     > b P y 5                                       6 ,.L 0 4                     ",
"                      4 w ^ q.0                 $ d T d 8                                       u 9.d 9 3                       ",
"                        1 0 d w.W ,           + a ^ N 0 <                                   6 [ ,.y 9 1                         ",
"                          = 8 r ] t.s 5       i ] L r 4                                 6 L w.L q 8                             ",
"                            @ 4 0 i &.w.N e n [ P u 4                               w ^ w._ r 0 5                               ",
"                                * 8 e i | t.&.L Q i ;                         r n 6.9.T r w 8                                   ",
"                                    ; 8 w r p b P &.q.^ a u t t t y u s T &.w.9.] a e w 8                                       ",
"                                        & 4 q r t u g ) @.:.6.8.6.1.:.| T d y r e 0 4                                           ",
"                                              * 1 8 0 w e r r r r r r e w 0 8 2                                                 ",
"                                                          - : > > : ;                                                           "
};
